<svg width="187" height="32" viewBox="0 0 187 32" fill="none" xmlns="http://www.w3.org/2000/svg">
<path d="M16 0C7.2 0 0 7.2 0 16C0 24.8 7.2 32 16 32C24.8 32 32 24.8 32 16C32 7.2 24.8 0 16 0ZM24.1333 17.3333C24.4 19.7333 25.3333 22 26.6667 24C26.1333 24.6667 25.4667 25.3333 24.8 26C22.8 23.4667 21.6 20.5333 21.3333 17.3333H17.3333V29.2C16.9333 29.2 16.4 29.3333 16 29.3333C15.6 29.3333 15.0667 29.3333 14.6667 29.2V17.3333H10.6667C10.4 20.5333 9.2 23.4667 7.2 26C6.53333 25.3333 5.86667 24.6667 5.33333 24C6.8 22 7.73333 19.7333 7.86667 17.3333H2.8C2.66667 16.9333 2.66667 16.4 2.66667 16C2.66667 15.6 2.66667 15.0667 2.8 14.6667H8C7.73333 12.2667 6.8 10 5.33333 8C5.86667 7.33333 6.53333 6.66667 7.2 6C9.2 8.53333 10.4 11.4667 10.6667 14.6667H14.6667V2.8C15.0667 2.66667 15.6 2.66667 16 2.66667C16.4 2.66667 16.9333 2.66667 17.3333 2.8V14.6667H21.3333C21.6 11.4667 22.8 8.53333 24.8 6C25.4667 6.66667 26.1333 7.33333 26.6667 8C25.2 10 24.2667 12.2667 24.1333 14.6667H29.3333C29.3333 15.0667 29.4667 15.6 29.4667 16C29.4667 16.4 29.4667 16.9333 29.3333 17.3333H24.1333Z" fill="#23262F"/>
<path d="M37.924 26V7.54H45.75C46.5993 7.54 47.3793 7.71333 48.09 8.06C48.8007 8.40667 49.416 8.87467 49.936 9.464C50.4733 10.0533 50.8893 10.712 51.184 11.44C51.4787 12.168 51.626 12.9133 51.626 13.676C51.626 14.716 51.3833 15.704 50.898 16.64C50.4127 17.576 49.7453 18.3387 48.896 18.928C48.0467 19.5173 47.0413 19.812 45.88 19.812H41.512V26H37.924ZM41.512 16.666H45.672C46.1053 16.666 46.4953 16.5447 46.842 16.302C47.1887 16.0593 47.466 15.7127 47.674 15.262C47.882 14.794 47.986 14.2653 47.986 13.676C47.986 13.0347 47.8647 12.4887 47.622 12.038C47.3967 11.5873 47.0933 11.2493 46.712 11.024C46.348 10.7987 45.9493 10.686 45.516 10.686H41.512V16.666ZM61.8972 15.392C60.8399 15.392 59.8952 15.6 59.0632 16.016C58.2312 16.4147 57.6332 16.9953 57.2692 17.758V26H53.7852V12.376H56.9832V15.288C57.4686 14.352 58.0839 13.6153 58.8292 13.078C59.5746 12.5407 60.3632 12.246 61.1952 12.194C61.3859 12.194 61.5332 12.194 61.6372 12.194C61.7412 12.194 61.8279 12.2027 61.8972 12.22V15.392ZM69.9802 26.26C68.8882 26.26 67.9002 26.078 67.0162 25.714C66.1322 25.3327 65.3782 24.8213 64.7542 24.18C64.1302 23.5213 63.6448 22.776 63.2982 21.944C62.9688 21.0947 62.8042 20.202 62.8042 19.266C62.8042 17.966 63.0902 16.7787 63.6622 15.704C64.2515 14.6293 65.0835 13.7713 66.1582 13.13C67.2502 12.4713 68.5328 12.142 70.0062 12.142C71.4968 12.142 72.7708 12.4713 73.8282 13.13C74.8855 13.7713 75.6915 14.6293 76.2462 15.704C76.8182 16.7613 77.1042 17.9053 77.1042 19.136C77.1042 19.344 77.0955 19.5607 77.0782 19.786C77.0608 19.994 77.0435 20.1673 77.0262 20.306H66.4962C66.5655 20.9993 66.7648 21.606 67.0942 22.126C67.4408 22.646 67.8742 23.0447 68.3942 23.322C68.9315 23.582 69.5035 23.712 70.1102 23.712C70.8035 23.712 71.4535 23.5473 72.0602 23.218C72.6842 22.8713 73.1088 22.4207 73.3342 21.866L76.3242 22.698C75.9948 23.3913 75.5182 24.0067 74.8942 24.544C74.2875 25.0813 73.5682 25.506 72.7362 25.818C71.9042 26.1127 70.9855 26.26 69.9802 26.26ZM66.4182 18.096H73.5422C73.4728 17.4027 73.2735 16.8047 72.9442 16.302C72.6322 15.782 72.2162 15.3833 71.6962 15.106C71.1762 14.8113 70.5955 14.664 69.9542 14.664C69.3302 14.664 68.7582 14.8113 68.2382 15.106C67.7355 15.3833 67.3195 15.782 66.9902 16.302C66.6782 16.8047 66.4875 17.4027 66.4182 18.096ZM100.391 26H96.9066V18.356C96.9066 17.2813 96.716 16.4927 96.3346 15.99C95.9706 15.47 95.4593 15.21 94.8006 15.21C94.1246 15.21 93.4746 15.4787 92.8506 16.016C92.244 16.536 91.8106 17.2207 91.5506 18.07V26H88.0666V18.356C88.0666 17.264 87.876 16.4667 87.4946 15.964C87.1306 15.4613 86.6193 15.21 85.9606 15.21C85.2846 15.21 84.6346 15.47 84.0106 15.99C83.404 16.51 82.9706 17.1947 82.7106 18.044V26H79.2266V12.376H82.3726V14.898C82.8926 14.014 83.586 13.338 84.4526 12.87C85.3193 12.3847 86.316 12.142 87.4426 12.142C88.5693 12.142 89.4446 12.4193 90.0686 12.974C90.71 13.5287 91.1173 14.2133 91.2906 15.028C91.8453 14.092 92.5473 13.3813 93.3966 12.896C94.2633 12.3933 95.234 12.142 96.3086 12.142C97.158 12.142 97.8426 12.298 98.3626 12.61C98.9 12.9047 99.316 13.312 99.6106 13.832C99.9053 14.3347 100.105 14.9067 100.209 15.548C100.33 16.1893 100.391 16.8393 100.391 17.498V26ZM124.88 21.242C124.88 22.282 124.611 23.1573 124.074 23.868C123.537 24.5613 122.809 25.09 121.89 25.454C120.989 25.818 120.001 26 118.926 26H110.008V7.54H119.888C120.755 7.54 121.5 7.774 122.124 8.242C122.765 8.69267 123.251 9.282 123.58 10.01C123.927 10.7207 124.1 11.466 124.1 12.246C124.1 13.13 123.875 13.9707 123.424 14.768C122.973 15.5653 122.315 16.1547 121.448 16.536C122.505 16.848 123.337 17.4113 123.944 18.226C124.568 19.0407 124.88 20.046 124.88 21.242ZM121.266 20.566C121.266 20.098 121.171 19.682 120.98 19.318C120.789 18.9367 120.529 18.642 120.2 18.434C119.888 18.2087 119.524 18.096 119.108 18.096H113.596V22.958H118.926C119.359 22.958 119.749 22.854 120.096 22.646C120.46 22.4207 120.746 22.126 120.954 21.762C121.162 21.398 121.266 20.9993 121.266 20.566ZM113.596 10.608V15.262H118.38C118.779 15.262 119.143 15.1667 119.472 14.976C119.801 14.7853 120.061 14.5167 120.252 14.17C120.46 13.8233 120.564 13.4073 120.564 12.922C120.564 12.454 120.469 12.0467 120.278 11.7C120.105 11.3533 119.862 11.0847 119.55 10.894C119.255 10.7033 118.917 10.608 118.536 10.608H113.596ZM140.004 26H136.52V18.356C136.52 17.2987 136.312 16.51 135.896 15.99C135.497 15.47 134.943 15.21 134.232 15.21C133.816 15.21 133.374 15.3313 132.906 15.574C132.438 15.8167 132.013 16.1547 131.632 16.588C131.268 17.004 130.999 17.4893 130.826 18.044V26H127.342V7.02H130.826V14.898C131.329 14.0313 132.013 13.3553 132.88 12.87C133.747 12.3847 134.691 12.142 135.714 12.142C136.598 12.142 137.317 12.298 137.872 12.61C138.427 12.9047 138.86 13.312 139.172 13.832C139.484 14.3347 139.701 14.9067 139.822 15.548C139.943 16.172 140.004 16.822 140.004 17.498V26ZM142.097 21.97C142.097 21.086 142.34 20.3147 142.825 19.656C143.328 18.98 144.021 18.46 144.905 18.096C145.789 17.732 146.803 17.55 147.947 17.55C148.519 17.55 149.1 17.5933 149.689 17.68C150.279 17.7667 150.79 17.9053 151.223 18.096V17.368C151.223 16.5013 150.963 15.834 150.443 15.366C149.941 14.898 149.187 14.664 148.181 14.664C147.436 14.664 146.725 14.794 146.049 15.054C145.373 15.314 144.663 15.6953 143.917 16.198L142.799 13.91C143.701 13.3207 144.619 12.8787 145.555 12.584C146.509 12.2893 147.505 12.142 148.545 12.142C150.487 12.142 151.995 12.6273 153.069 13.598C154.161 14.5687 154.707 15.9553 154.707 17.758V22.1C154.707 22.464 154.768 22.724 154.889 22.88C155.028 23.036 155.245 23.1313 155.539 23.166V26C155.227 26.052 154.941 26.0953 154.681 26.13C154.439 26.1647 154.231 26.182 154.057 26.182C153.364 26.182 152.835 26.026 152.471 25.714C152.125 25.402 151.908 25.0207 151.821 24.57L151.743 23.868C151.154 24.6307 150.417 25.22 149.533 25.636C148.649 26.052 147.748 26.26 146.829 26.26C145.928 26.26 145.113 26.078 144.385 25.714C143.675 25.3327 143.111 24.8213 142.695 24.18C142.297 23.5213 142.097 22.7847 142.097 21.97ZM150.573 22.672C150.764 22.464 150.92 22.256 151.041 22.048C151.163 21.84 151.223 21.6493 151.223 21.476V20.098C150.807 19.9247 150.357 19.7947 149.871 19.708C149.386 19.604 148.927 19.552 148.493 19.552C147.592 19.552 146.847 19.7513 146.257 20.15C145.685 20.5313 145.399 21.0427 145.399 21.684C145.399 22.0307 145.495 22.36 145.685 22.672C145.876 22.984 146.153 23.2353 146.517 23.426C146.881 23.6167 147.315 23.712 147.817 23.712C148.337 23.712 148.849 23.6167 149.351 23.426C149.854 23.218 150.261 22.9667 150.573 22.672ZM166 25.298C165.705 25.4193 165.35 25.558 164.934 25.714C164.518 25.87 164.067 25.9913 163.582 26.078C163.114 26.182 162.637 26.234 162.152 26.234C161.511 26.234 160.921 26.1213 160.384 25.896C159.847 25.6707 159.413 25.3153 159.084 24.83C158.772 24.3273 158.616 23.6773 158.616 22.88V15.054H156.822V12.376H158.616V7.956H162.1V12.376H164.96V15.054H162.1V21.71C162.117 22.178 162.247 22.516 162.49 22.724C162.733 22.932 163.036 23.036 163.4 23.036C163.764 23.036 164.119 22.9753 164.466 22.854C164.813 22.7327 165.09 22.6287 165.298 22.542L166 25.298ZM175.928 25.298C175.633 25.4193 175.278 25.558 174.862 25.714C174.446 25.87 173.995 25.9913 173.51 26.078C173.042 26.182 172.565 26.234 172.08 26.234C171.438 26.234 170.849 26.1213 170.312 25.896C169.774 25.6707 169.341 25.3153 169.012 24.83C168.7 24.3273 168.544 23.6773 168.544 22.88V15.054H166.75V12.376H168.544V7.956H172.028V12.376H174.888V15.054H172.028V21.71C172.045 22.178 172.175 22.516 172.418 22.724C172.66 22.932 172.964 23.036 173.328 23.036C173.692 23.036 174.047 22.9753 174.394 22.854C174.74 22.7327 175.018 22.6287 175.226 22.542L175.928 25.298Z" fill="#111111"/>
</svg>
