<svg width="173" height="38" viewBox="0 0 173 38" fill="none" xmlns="http://www.w3.org/2000/svg">
<path d="M2.368 30V7.28H12C13.0453 7.28 14.0053 7.49333 14.88 7.92C15.7547 8.34667 16.512 8.92267 17.152 9.648C17.8133 10.3733 18.3253 11.184 18.688 12.08C19.0507 12.976 19.232 13.8933 19.232 14.832C19.232 16.112 18.9333 17.328 18.336 18.48C17.7387 19.632 16.9173 20.5707 15.872 21.296C14.8267 22.0213 13.5893 22.384 12.16 22.384H6.784V30H2.368ZM6.784 18.512H11.904C12.4373 18.512 12.9173 18.3627 13.344 18.064C13.7707 17.7653 14.112 17.3387 14.368 16.784C14.624 16.208 14.752 15.5573 14.752 14.832C14.752 14.0427 14.6027 13.3707 14.304 12.816C14.0267 12.2613 13.6533 11.8453 13.184 11.568C12.736 11.2907 12.2453 11.152 11.712 11.152H6.784V18.512ZM31.8735 16.944C30.5722 16.944 29.4095 17.2 28.3855 17.712C27.3615 18.2027 26.6255 18.9173 26.1775 19.856V30H21.8895V13.232H25.8255V16.816C26.4228 15.664 27.1802 14.7573 28.0975 14.096C29.0148 13.4347 29.9855 13.072 31.0095 13.008C31.2442 13.008 31.4255 13.008 31.5535 13.008C31.6815 13.008 31.7882 13.0187 31.8735 13.04V16.944ZM41.8218 30.32C40.4778 30.32 39.2618 30.096 38.1738 29.648C37.0858 29.1787 36.1578 28.5493 35.3898 27.76C34.6218 26.9493 34.0244 26.032 33.5978 25.008C33.1924 23.9627 32.9898 22.864 32.9898 21.712C32.9898 20.112 33.3418 18.6507 34.0458 17.328C34.7711 16.0053 35.7951 14.9493 37.1178 14.16C38.4618 13.3493 40.0404 12.944 41.8538 12.944C43.6884 12.944 45.2564 13.3493 46.5578 14.16C47.8591 14.9493 48.8511 16.0053 49.5338 17.328C50.2378 18.6293 50.5898 20.0373 50.5898 21.552C50.5898 21.808 50.5791 22.0747 50.5578 22.352C50.5364 22.608 50.5151 22.8213 50.4938 22.992H37.5338C37.6191 23.8453 37.8644 24.592 38.2698 25.232C38.6964 25.872 39.2298 26.3627 39.8698 26.704C40.5311 27.024 41.2351 27.184 41.9818 27.184C42.8351 27.184 43.6351 26.9813 44.3818 26.576C45.1498 26.1493 45.6724 25.5947 45.9498 24.912L49.6298 25.936C49.2244 26.7893 48.6378 27.5467 47.8698 28.208C47.1231 28.8693 46.2378 29.392 45.2138 29.776C44.1898 30.1387 43.0591 30.32 41.8218 30.32ZM37.4378 20.272H46.2058C46.1204 19.4187 45.8751 18.6827 45.4698 18.064C45.0858 17.424 44.5738 16.9333 43.9338 16.592C43.2938 16.2293 42.5791 16.048 41.7898 16.048C41.0218 16.048 40.3178 16.2293 39.6778 16.592C39.0591 16.9333 38.5471 17.424 38.1418 18.064C37.7578 18.6827 37.5231 19.4187 37.4378 20.272ZM79.25 30H74.962V20.592C74.962 19.2693 74.7273 18.2987 74.258 17.68C73.81 17.04 73.1807 16.72 72.37 16.72C71.538 16.72 70.738 17.0507 69.97 17.712C69.2233 18.352 68.69 19.1947 68.37 20.24V30H64.082V20.592C64.082 19.248 63.8473 18.2667 63.378 17.648C62.93 17.0293 62.3007 16.72 61.49 16.72C60.658 16.72 59.858 17.04 59.09 17.68C58.3433 18.32 57.81 19.1627 57.49 20.208V30H53.202V13.232H57.074V16.336C57.714 15.248 58.5673 14.416 59.634 13.84C60.7007 13.2427 61.9273 12.944 63.314 12.944C64.7007 12.944 65.778 13.2853 66.546 13.968C67.3353 14.6507 67.8367 15.4933 68.05 16.496C68.7327 15.344 69.5967 14.4693 70.642 13.872C71.7087 13.2533 72.9033 12.944 74.226 12.944C75.2713 12.944 76.114 13.136 76.754 13.52C77.4153 13.8827 77.9273 14.384 78.29 15.024C78.6527 15.6427 78.898 16.3467 79.026 17.136C79.1753 17.9253 79.25 18.7253 79.25 19.536V30ZM109.391 24.144C109.391 25.424 109.06 26.5013 108.399 27.376C107.737 28.2293 106.841 28.88 105.711 29.328C104.601 29.776 103.385 30 102.063 30H91.0868V7.28H103.247C104.313 7.28 105.231 7.568 105.999 8.144C106.788 8.69867 107.385 9.424 107.791 10.32C108.217 11.1947 108.431 12.112 108.431 13.072C108.431 14.16 108.153 15.1947 107.599 16.176C107.044 17.1573 106.233 17.8827 105.167 18.352C106.468 18.736 107.492 19.4293 108.239 20.432C109.007 21.4347 109.391 22.672 109.391 24.144ZM104.943 23.312C104.943 22.736 104.825 22.224 104.591 21.776C104.356 21.3067 104.036 20.944 103.631 20.688C103.247 20.4107 102.799 20.272 102.287 20.272H95.5028V26.256H102.063C102.596 26.256 103.076 26.128 103.503 25.872C103.951 25.5947 104.303 25.232 104.559 24.784C104.815 24.336 104.943 23.8453 104.943 23.312ZM95.5028 11.056V16.784H101.391C101.881 16.784 102.329 16.6667 102.735 16.432C103.14 16.1973 103.46 15.8667 103.695 15.44C103.951 15.0133 104.079 14.5013 104.079 13.904C104.079 13.328 103.961 12.8267 103.727 12.4C103.513 11.9733 103.215 11.6427 102.831 11.408C102.468 11.1733 102.052 11.056 101.583 11.056H95.5028ZM128.005 30H123.717V20.592C123.717 19.2907 123.461 18.32 122.949 17.68C122.458 17.04 121.775 16.72 120.901 16.72C120.389 16.72 119.845 16.8693 119.269 17.168C118.693 17.4667 118.17 17.8827 117.701 18.416C117.253 18.928 116.922 19.5253 116.709 20.208V30H112.421V6.64H116.709V16.336C117.327 15.2693 118.17 14.4373 119.237 13.84C120.303 13.2427 121.466 12.944 122.725 12.944C123.813 12.944 124.698 13.136 125.381 13.52C126.063 13.8827 126.597 14.384 126.981 15.024C127.365 15.6427 127.631 16.3467 127.781 17.136C127.93 17.904 128.005 18.704 128.005 19.536V30ZM130.581 25.04C130.581 23.952 130.88 23.0027 131.477 22.192C132.096 21.36 132.949 20.72 134.037 20.272C135.125 19.824 136.373 19.6 137.781 19.6C138.485 19.6 139.2 19.6533 139.925 19.76C140.651 19.8667 141.28 20.0373 141.813 20.272V19.376C141.813 18.3093 141.493 17.488 140.853 16.912C140.235 16.336 139.307 16.048 138.069 16.048C137.152 16.048 136.277 16.208 135.445 16.528C134.613 16.848 133.739 17.3173 132.821 17.936L131.445 15.12C132.555 14.3947 133.685 13.8507 134.837 13.488C136.011 13.1253 137.237 12.944 138.517 12.944C140.907 12.944 142.763 13.5413 144.085 14.736C145.429 15.9307 146.101 17.6373 146.101 19.856V25.2C146.101 25.648 146.176 25.968 146.325 26.16C146.496 26.352 146.763 26.4693 147.125 26.512V30C146.741 30.064 146.389 30.1173 146.069 30.16C145.771 30.2027 145.515 30.224 145.301 30.224C144.448 30.224 143.797 30.032 143.349 29.648C142.923 29.264 142.656 28.7947 142.549 28.24L142.453 27.376C141.728 28.3147 140.821 29.04 139.733 29.552C138.645 30.064 137.536 30.32 136.405 30.32C135.296 30.32 134.293 30.096 133.397 29.648C132.523 29.1787 131.829 28.5493 131.317 27.76C130.827 26.9493 130.581 26.0427 130.581 25.04ZM141.013 25.904C141.248 25.648 141.44 25.392 141.589 25.136C141.739 24.88 141.813 24.6453 141.813 24.432V22.736C141.301 22.5227 140.747 22.3627 140.149 22.256C139.552 22.128 138.987 22.064 138.453 22.064C137.344 22.064 136.427 22.3093 135.701 22.8C134.997 23.2693 134.645 23.8987 134.645 24.688C134.645 25.1147 134.763 25.52 134.997 25.904C135.232 26.288 135.573 26.5973 136.021 26.832C136.469 27.0667 137.003 27.184 137.621 27.184C138.261 27.184 138.891 27.0667 139.509 26.832C140.128 26.576 140.629 26.2667 141.013 25.904ZM160 29.136C159.637 29.2853 159.2 29.456 158.688 29.648C158.176 29.84 157.621 29.9893 157.024 30.096C156.448 30.224 155.861 30.288 155.264 30.288C154.475 30.288 153.749 30.1493 153.088 29.872C152.427 29.5947 151.893 29.1573 151.488 28.56C151.104 27.9413 150.912 27.1413 150.912 26.16V16.528H148.704V13.232H150.912V7.792H155.2V13.232H158.72V16.528H155.2V24.72C155.221 25.296 155.381 25.712 155.68 25.968C155.979 26.224 156.352 26.352 156.8 26.352C157.248 26.352 157.685 26.2773 158.112 26.128C158.539 25.9787 158.88 25.8507 159.136 25.744L160 29.136ZM172.219 29.136C171.856 29.2853 171.419 29.456 170.907 29.648C170.395 29.84 169.84 29.9893 169.243 30.096C168.667 30.224 168.08 30.288 167.483 30.288C166.693 30.288 165.968 30.1493 165.307 29.872C164.645 29.5947 164.112 29.1573 163.707 28.56C163.323 27.9413 163.131 27.1413 163.131 26.16V16.528H160.923V13.232H163.131V7.792H167.419V13.232H170.939V16.528H167.419V24.72C167.44 25.296 167.6 25.712 167.899 25.968C168.197 26.224 168.571 26.352 169.019 26.352C169.467 26.352 169.904 26.2773 170.331 26.128C170.757 25.9787 171.099 25.8507 171.355 25.744L172.219 29.136Z" fill="#111111"/>
</svg>
